<?xml version="1.0" encoding="UTF-8" standalone="no"?>
<svg
   version="1.1"
   xmlnsXlink="http://www.w3.org/1999/xlink"
   xmlnsSvgjs="http://svgjs.dev/svgjs"
   width="1000"
   height="308"
   viewBox="0 0 1000 308"
   id="svg68"
   sodipodiDocname="logo-no-background.svg"
   inkscapeVersion="1.1.2 (0a00cf5339, 2022-02-04)"
   xmlnsInkscape="http://www.inkscape.org/namespaces/inkscape"
   xmlnsSodipodi="http://sodipodi.sourceforge.net/DTD/sodipodi-0.dtd"
   xmlns="http://www.w3.org/2000/svg"
   xmlnsSvg="http://www.w3.org/2000/svg">
  <defs
     id="defs72" />
  <g
     transform="matrix(1,0,0,1,-0.6060606060606233,-0.32833680775630114)"
     id="g66">
    <svg
       viewBox="0 0 396 122"
       data-background-color="#ffffff"
       preserveAspectRatio="xMidYMid meet"
       height="308"
       width="1000"
       version="1.1"
       id="svg64">
      <svg
         viewBox="0 0 395.52 121.73985"
         height="121.73985"
         width="395.51999"
         version="1.1"
         id="svg59">
        <g
           id="g55">
          <svg
             viewBox="0 0 625.31139 192.46893"
             height="121.73985"
             width="395.51999"
             version="1.1"
             id="svg53"
             style="fill:#ffffff">
            <g
               transform="translate(229.79139,56.710698)"
               id="g23"
               style="fill:#ffffff">
              <svg
                 viewBox="0 0 395.52 79.047537"
                 height="79.047539"
                 width="395.51999"
                 version="1.1"
                 id="svg21"
                 style="fill:#ffffff">
                <g
                   id="textblocktransform"
                   style="fill:#ffffff">
                  <svg
                     viewBox="0 0 395.52 79.047537"
                     height="79.047539"
                     width="395.51999"
                     id="textblock"
                     version="1.1"
                     style="fill:#ffffff">
                    <g
                       id="g17"
                       style="fill:#ffffff">
                      <svg
                         viewBox="0 0 395.52 79.047537"
                         height="79.047539"
                         width="395.51999"
                         version="1.1"
                         id="svg15"
                         style="fill:#ffffff">
                        <g
                           id="g13"
                           style="fill:#ffffff">
                          <svg
                             width="395.51999"
                             viewBox="0.33000001 -35 174.54001 35"
                             height="79.047539"
                             data-palette-color="#bb84e8"
                             version="1.1"
                             id="svg11"
                             style="fill:#ffffff">
                            <g
                               class="wordmark-text-0"
                               data-fill-palette-color="primary"
                               id="text-0"
                               style="fill:#ffffff">
                              <path
                                 d="M 15.68,0 H 10.2 L 0.33,-35 h 5.7 l 7.22,27.15 8.25,-26.75 h 4.75 l 8.38,26.47 7.1,-26.87 h 5.7 L 37.38,0 h -5.3 l -8.23,-26.13 z"
                                 fill="#bb84e8"
                                 data-fill-palette-color="primary"
                                 id="path2"
                                 style="fill:#ffffff" />
                              <path
                                 d="M 75.98,0 H 70.53 V -14.73 L 58.2,-35 h 6.08 L 74.5,-17.68 H 71.95 L 82.2,-35 h 6.08 l -12.3,20.27 z"
                                 fill="#b19dd0"
                                 data-fill-palette-color="secondary"
                                 id="path4"
                                 style="fill:#ffffff" />
                              <path
                                 d="m 109.05,0 h -5.6 v -35 h 11.98 q 3.65,0 6.36,1.14 2.71,1.13 4.21,3.48 1.5,2.35 1.5,6 v 0 q 0,3.7 -1.58,6.07 -1.59,2.36 -4.44,3.73 v 0 L 129.35,0 h -6.37 l -6.95,-13.38 q -0.08,0 -0.13,0 -0.05,0 -0.12,0 v 0 h -6.73 z m 0,-30.28 v 12.18 h 5.63 q 3.72,0 5.44,-1.68 1.71,-1.67 1.71,-4.45 v 0 q 0,-2.87 -1.7,-4.46 -1.7,-1.59 -5.35,-1.59 v 0 z"
                                 fill="#bb84e8"
                                 data-fill-palette-color="primary"
                                 id="path6"
                                 style="fill:#ffffff" />
                              <path
                                 d="m 157.55,0 h -13.03 v -35 h 13.03 q 5.05,0 8.96,2.07 3.91,2.08 6.14,5.99 2.22,3.91 2.22,9.44 v 0 q 0,5.52 -2.22,9.44 -2.23,3.91 -6.14,5.98 Q 162.6,0 157.55,0 Z m -7.58,-30.1 v 25.2 h 7.58 q 3.75,0 6.27,-1.56 2.53,-1.57 3.82,-4.4 1.28,-2.84 1.28,-6.64 v 0 q 0,-3.8 -1.28,-6.64 -1.29,-2.84 -3.82,-4.4 -2.52,-1.56 -6.27,-1.56 v 0 z"
                                 fill="#b19dd0"
                                 data-fill-palette-color="secondary"
                                 id="path8"
                                 style="fill:#ffffff" />
                            </g>
                          </svg>
                        </g>
                      </svg>
                    </g>
                  </svg>
                </g>
              </svg>
            </g>
            <g
               id="g51"
               style="fill:#ffffff">
              <svg
                 viewBox="0 0 192.46893 192.46893"
                 height="192.46893"
                 width="192.46893"
                 version="1.1"
                 id="svg49"
                 style="fill:#ffffff">
                <g
                   id="g27"
                   style="fill:#ffffff">
                  <svg
                     version="1.1"
                     id="svg25"
                     width="100%"
                     height="100%"
                     style="fill:#ffffff" />
                </g>
                <g
                   id="icon-0"
                   style="fill:#ffffff">
                  <svg
                     viewBox="0 0 192.46893 192.46893"
                     height="192.46893"
                     width="192.46893"
                     version="1.1"
                     id="svg46"
                     style="fill:#ffffff">
                    <g
                       id="g31"
                       style="fill:#ffffff">
                      <path
                         d="M 0,96.234 C 0,43.085 43.086,0 96.234,0 c 53.149,0 96.234,43.086 96.235,96.234 0,53.149 -43.086,96.234 -96.235,96.235 C 43.085,192.469 0,149.383 0,96.234 Z m 96.234,89.106 c 49.212,0 89.106,-39.894 89.106,-89.106 0,-49.212 -39.894,-89.106 -89.106,-89.105 -49.212,0 -89.106,39.894 -89.105,89.105 0,49.212 39.894,89.106 89.105,89.106 z"
                         data-fill-palette-color="accent"
                         fill="#b19dd0"
                         stroke="transparent"
                         id="path29"
                         style="fill:#ffffff" />
                    </g>
                    <g
                       transform="translate(40.543758,55.306879)"
                       id="g44"
                       style="fill:#ffffff">
                      <svg
                         viewBox="0 0 111.38142 81.855176"
                         height="81.855179"
                         width="111.38142"
                         version="1.1"
                         id="svg42"
                         style="fill:#ffffff">
                        <g
                           id="g40"
                           style="fill:#ffffff">
                          <svg
                             version="1.1"
                             x="0"
                             y="0"
                             viewBox="7.552 18.478996 87.468002 64.280998"
                             enable-background="new 0 0 100 100"
                             xml:space="preserve"
                             height="81.855179"
                             width="111.38142"
                             class="icon-s-0"
                             data-fill-palette-color="accent"
                             id="s-0"
                             style="fill:#ffffff"><path
                               d="m 31.805,41.953 c 0,-5.497 2.443,-10.57 6.546,-14.639 -0.238,-0.004 -0.474,-0.013 -0.712,-0.013 -16.615,0 -30.087,9.948 -30.087,22.221 0,9.36 7.837,17.36 18.926,20.634 L 25.893,82.76 34.586,71.744 c 0,0 1.642,0 3.053,0 7.925,0 15.129,-2.267 20.502,-5.965 C 43.185,63.725 31.805,53.826 31.805,41.953 Z"
                               fill="#b19dd0"
                               data-fill-palette-color="accent"
                               id="path33"
                               style="fill:#ffffff" /><g
                               fill="#b19dd0"
                               data-fill-palette-color="accent"
                               id="g37"
                               style="fill:#ffffff"><path
                                 d="M 76.966,82.062 65.016,66.923 h -2.081 c -17.693,0 -32.089,-10.865 -32.089,-24.223 0,-13.355 14.396,-24.221 32.089,-24.221 17.691,0 32.085,10.866 32.085,24.221 0,9.637 -7.348,18.172 -18.857,22.078 z M 62.935,22.48 c -15.487,0 -28.089,9.071 -28.089,20.221 0,11.15 12.602,20.223 28.089,20.223 h 4.021 l 5.437,6.889 -0.369,-7.949 1.504,-0.443 C 84.153,58.281 91.02,50.934 91.02,42.701 91.02,31.551 78.421,22.48 62.935,22.48 Z"
                                 fill="#b19dd0"
                                 data-fill-palette-color="accent"
                                 id="path35"
                                 style="fill:#ffffff" /></g></svg>
                        </g>
                      </svg>
                    </g>
                  </svg>
                </g>
              </svg>
            </g>
          </svg>
        </g>
        <defs
           id="defs57" />
      </svg>
      <rect
         width="395.51999"
         height="121.73985"
         fill="none"
         stroke="none"
         visibility="hidden"
         id="rect61"
         x="0.23999999"
         y="0.13005549" />
    </svg>
  </g>
</svg>
