<svg xmlns="http://www.w3.org/2000/svg" version="1.1" xmlns:xlink="http://www.w3.org/1999/xlink" xmlns:svgjs="http://svgjs.dev/svgjs" width="1000" height="1000" viewBox="0 0 1000 1000"><rect width="1000" height="1000" fill="#ffffff"></rect><g transform="matrix(0.7,0,0,0.7,149.57575757575756,391.9701642345706)"><svg viewBox="0 0 396 122" data-background-color="#ffffff" preserveAspectRatio="xMidYMid meet" height="308" width="1000" xmlns="http://www.w3.org/2000/svg" xmlns:xlink="http://www.w3.org/1999/xlink"><g id="tight-bounds" transform="matrix(1,0,0,1,0.2400000000000091,0.13005548878658146)"><svg viewBox="0 0 395.52 121.73984744643965" height="121.73984744643965" width="395.52"><g><svg viewBox="0 0 625.311387182029 192.46893426896685" height="121.73984744643965" width="395.52"><g transform="matrix(1,0,0,1,229.79138718202896,56.71069839786672)"><svg viewBox="0 0 395.52 79.0475374732334" height="79.0475374732334" width="395.52"><g id="textblocktransform"><svg viewBox="0 0 395.52 79.0475374732334" height="79.0475374732334" width="395.52" id="textblock"><g><svg viewBox="0 0 395.52 79.0475374732334" height="79.0475374732334" width="395.52"><g transform="matrix(1,0,0,1,0,0)"><svg width="395.52" viewBox="0.33000001311302185 -35 174.54000854492188 35" height="79.0475374732334" data-palette-color="#bb84e8"><g class="wordmark-text-0" data-fill-palette-color="primary" id="text-0"><path d="M15.68 0L10.2 0 0.33-35 6.03-35 13.25-7.85 21.5-34.6 26.25-34.6 34.63-8.13 41.73-35 47.43-35 37.38 0 32.08 0 23.85-26.13 15.68 0Z" fill="#000000" data-fill-palette-color="primary"></path><path d="M75.98 0L70.53 0 70.53-14.73 58.2-35 64.28-35 74.5-17.68 71.95-17.68 82.2-35 88.28-35 75.98-14.73 75.98 0Z" fill="#000000" data-fill-palette-color="secondary"></path><path d="M109.05 0L103.45 0 103.45-35 115.43-35Q119.08-35 121.79-33.86 124.5-32.73 126-30.38 127.5-28.03 127.5-24.38L127.5-24.38Q127.5-20.68 125.92-18.31 124.33-15.95 121.48-14.58L121.48-14.58 129.35 0 122.98 0 116.03-13.38Q115.95-13.38 115.9-13.38 115.85-13.38 115.78-13.38L115.78-13.38 109.05-13.38 109.05 0ZM109.05-30.28L109.05-18.1 114.68-18.1Q118.4-18.1 120.12-19.78 121.83-21.45 121.83-24.23L121.83-24.23Q121.83-27.1 120.13-28.69 118.43-30.28 114.78-30.28L114.78-30.28 109.05-30.28Z" fill="#000000" data-fill-palette-color="primary"></path><path d="M157.55 0L144.52 0 144.52-35 157.55-35Q162.6-35 166.51-32.93 170.42-30.85 172.65-26.94 174.87-23.03 174.87-17.5L174.87-17.5Q174.87-11.98 172.65-8.06 170.42-4.15 166.51-2.08 162.6 0 157.55 0L157.55 0ZM149.97-30.1L149.97-4.9 157.55-4.9Q161.3-4.9 163.82-6.46 166.35-8.03 167.64-10.86 168.92-13.7 168.92-17.5L168.92-17.5Q168.92-21.3 167.64-24.14 166.35-26.98 163.82-28.54 161.3-30.1 157.55-30.1L157.55-30.1 149.97-30.1Z" fill="#000000" data-fill-palette-color="secondary"></path></g></svg></g></svg></g></svg></g></svg></g><g><svg viewBox="0 0 192.46893426896685 192.46893426896685" height="192.46893426896685" width="192.46893426896685"><g><svg></svg></g><g id="icon-0"><svg viewBox="0 0 192.46893426896685 192.46893426896685" height="192.46893426896685" width="192.46893426896685"><g><path d="M0 96.234c0-53.149 43.086-96.234 96.234-96.234 53.149 0 96.234 43.086 96.235 96.234 0 53.149-43.086 96.234-96.235 96.235-53.149 0-96.234-43.086-96.234-96.235zM96.234 185.34c49.212 0 89.106-39.894 89.106-89.106 0-49.212-39.894-89.106-89.106-89.105-49.212 0-89.106 39.894-89.105 89.105 0 49.212 39.894 89.106 89.105 89.106z" data-fill-palette-color="accent" fill="#000000" stroke="transparent"></path></g><g transform="matrix(1,0,0,1,40.54375812962637,55.30687907893456)"><svg viewBox="0 0 111.38141800971411 81.85517611109773" height="81.85517611109773" width="111.38141800971411"><g><svg xmlns="http://www.w3.org/2000/svg" xmlns:xlink="http://www.w3.org/1999/xlink" version="1.1" x="0" y="0" viewBox="7.552000045776367 18.47899627685547 87.46800231933594 64.28099822998047" enable-background="new 0 0 100 100" xml:space="preserve" height="81.85517611109773" width="111.38141800971411" class="icon-s-0" data-fill-palette-color="accent" id="s-0"><path d="M31.805 41.953c0-5.497 2.443-10.57 6.546-14.639-0.238-0.004-0.474-0.013-0.712-0.013-16.615 0-30.087 9.948-30.087 22.221 0 9.36 7.837 17.36 18.926 20.634l-0.585 12.604 8.693-11.016c0 0 1.642 0 3.053 0 7.925 0 15.129-2.267 20.502-5.965C43.185 63.725 31.805 53.826 31.805 41.953z" fill="#000000" data-fill-palette-color="accent"></path><g fill="#b19dd0" data-fill-palette-color="accent"><path d="M76.966 82.062l-11.95-15.139h-2.081c-17.693 0-32.089-10.865-32.089-24.223 0-13.355 14.396-24.221 32.089-24.221 17.691 0 32.085 10.866 32.085 24.221 0 9.637-7.348 18.172-18.857 22.078L76.966 82.062zM62.935 22.48c-15.487 0-28.089 9.071-28.089 20.221 0 11.15 12.602 20.223 28.089 20.223h4.021l5.437 6.889-0.369-7.949 1.504-0.443C84.153 58.281 91.02 50.934 91.02 42.701 91.02 31.551 78.421 22.48 62.935 22.48z" fill="#000000" data-fill-palette-color="accent"></path></g></svg></g></svg></g></svg></g></svg></g></svg></g><defs></defs></svg><rect width="395.52" height="121.73984744643965" fill="none" stroke="none" visibility="hidden"></rect></g></svg></g></svg>